<svg xmlns="http://www.w3.org/2000/svg" xmlns:xlink="http://www.w3.org/1999/xlink" width="85.882" height="81.118" viewBox="0 0 85.882 81.118">
  <defs>
    <filter id="Trazado_677" x="0" y="0" width="85.882" height="81.118" filterUnits="userSpaceOnUse">
      <feOffset dy="3" input="SourceAlpha"/>
      <feGaussianBlur stdDeviation="3" result="blur"/>
      <feFlood flood-opacity="0.161"/>
      <feComposite operator="in" in2="blur"/>
      <feComposite in="SourceGraphic"/>
    </filter>
  </defs>
  <g id="Grupo_1527" data-name="Grupo 1527" transform="translate(9 6)">
    <g transform="matrix(1, 0, 0, 1, -9, -6)" filter="url(#Trazado_677)">
      <path id="Trazado_677-2" data-name="Trazado 677" d="M190,4003.209v-39.3A11.907,11.907,0,0,1,201.909,3952h44.064a11.908,11.908,0,0,1,11.909,11.909v39.3a11.9,11.9,0,0,1-11.909,11.909H201.909A11.908,11.908,0,0,1,190,4003.209Z" transform="translate(-181 -3946)" fill="#fff"/>
    </g>
    <path id="Trazado_678" data-name="Trazado 678" d="M218.458,3972.058a1.1,1.1,0,0,1,.008,1.541l-5.083,5.1h19.368a1.088,1.088,0,0,1,0,2.177H213.384l5.091,5.1a1.1,1.1,0,0,1-.008,1.541,1.085,1.085,0,0,1-1.533-.009l-6.9-6.949a1.236,1.236,0,0,1-.225-.344,1.027,1.027,0,0,1-.085-.418,1.1,1.1,0,0,1,.31-.762l6.9-6.95A1.066,1.066,0,0,1,218.458,3972.058Z" transform="translate(-186.234 -3948.229)" fill="#27293f"/>
  </g>
</svg>
