<svg xmlns="http://www.w3.org/2000/svg" xmlns:xlink="http://www.w3.org/1999/xlink" width="78.347" height="78.347" viewBox="0 0 78.347 78.347">
  <defs>
    <filter id="Trazado_686" x="0" y="0" width="78.347" height="78.347" filterUnits="userSpaceOnUse">
      <feOffset dy="3" input="SourceAlpha"/>
      <feGaussianBlur stdDeviation="3" result="blur"/>
      <feFlood flood-opacity="0.161"/>
      <feComposite operator="in" in2="blur"/>
      <feComposite in="SourceGraphic"/>
    </filter>
  </defs>
  <g id="Grupo_1535" data-name="Grupo 1535" transform="translate(-191.115 -455.214)">
    <g transform="matrix(1, 0, 0, 1, 191.12, 455.21)" filter="url(#Trazado_686)">
      <path id="Trazado_686-2" data-name="Trazado 686" d="M30.173,0A30.173,30.173,0,1,1,0,30.173,30.173,30.173,0,0,1,30.173,0Z" transform="translate(9 6)" fill="#fff"/>
    </g>
    <path id="Icon_ionic-ios-arrow-round-forward" data-name="Icon ionic-ios-arrow-round-forward" d="M22.3,11.541a1.027,1.027,0,0,0-.008,1.446l4.777,4.785H8.889a1.021,1.021,0,0,0,0,2.043H27.062L22.285,24.6a1.034,1.034,0,0,0,.008,1.446,1.017,1.017,0,0,0,1.438-.008L30.2,19.515h0a1.147,1.147,0,0,0,.212-.322A.975.975,0,0,0,30.5,18.8a1.024,1.024,0,0,0-.291-.715l-6.474-6.521A1,1,0,0,0,22.3,11.541Z" transform="translate(211.115 472.945)" fill="#ff7573"/>
  </g>
</svg>
