<svg xmlns="http://www.w3.org/2000/svg" width="276.16" height="91.761" viewBox="0 0 276.16 91.761">
  <g id="Grupo_1484" data-name="Grupo 1484" transform="translate(-140 -29.428)">
    <text id="StudyRooms" transform="translate(243.16 90.189)" fill="#fff" font-size="25" font-family="SegoeUI-Bold, Segoe UI" font-weight="700"><tspan x="0" y="0">STUDY</tspan><tspan y="0" fill="#27293f">ROOMS</tspan></text>
    <g id="Grupo_1483" data-name="Grupo 1483" transform="translate(140 29.428)">
      <path id="Trazado_704" data-name="Trazado 704" d="M-345.517-440.5c1.468,1.659,1.393,3.785,1.426,5.754.222,13-6.344,21.855-17.476,27.6a33.343,33.343,0,0,1-24.42,2.91c-17.137-4.522-26.187-22.643-20.323-40.565,4.651-14.216,17.915-24.712,32.813-25.436,9.16-.446,16.9,2.889,22.274,10.621,5.159,7.421,3.562,15.388-4.055,20.251-10.724,6.849-21.354,13.86-32.794,19.52-2.971,1.47-2.936,2.322-.126,4.054a23.985,23.985,0,0,0,17.905,2.961c12.867-2.546,23.923-14.152,23.9-26.278A1.3,1.3,0,0,1-345.517-440.5Zm-52.027,7.546c.2,1.248.552,3.281.848,5.323.314,2.167,1.18,2.261,2.976,1.187,9.142-5.465,18.367-10.79,27.537-16.207a9.283,9.283,0,0,0,4.517-10.612c-.915-3.689-4.385-6.2-8.952-6.2-9.256,0-16.33,4.286-21.858,11.458C-395.709-443.816-397.289-439.039-397.544-432.956Z" transform="translate(428.522 494.873)" fill="#fff"/>
      <path id="Trazado_705" data-name="Trazado 705" d="M-439.314-474.979c6.13-7.254,11.732-13.885,17.337-20.516.562-.665,1.2-1.276,1.694-1.988,3.363-4.866,7.406-7.07,13.875-7.358,8.039-.358,16.183-1.474,24.25-2.522,1.5-.2,3.022-.289,5.337-.5-2.888,3.444-5.129,6.609-7.873,9.249-2.6,2.5-2.6,4.586-.853,7.561,2.549,4.342,2.354,4.529-2.364,5.329-10.558,1.792-22.414,8.265-29.346,19.018-1.5-2.807-3.027-5.367-4.264-8.061-1.281-2.789-3.585-1.687-5.365-1.373-2,.353-.672,2.066-.542,3.187.53,4.57,1.116,9.14,2.86,13.446.442,1.091.158,1.477-.915,1.841-3.975,1.346-4.851.723-4.561-3.315.1-1.376.448-2.8-.506-4.094a1.752,1.752,0,0,1-.053-2.164c1.964-2.128.913-4.48.754-6.809-.1-1.5-.806-1.8-2.1-1.648C-434.109-475.449-436.273-475.272-439.314-474.979Z" transform="translate(439.314 507.867)" fill="#fff"/>
    </g>
  </g>
</svg>
