<svg xmlns="http://www.w3.org/2000/svg" width="22.637" height="22.667" viewBox="0 0 22.637 22.667">
  <path id="Icon_zocial-call" data-name="Icon zocial-call" d="M3.315,7.394a1.668,1.668,0,0,1,.425-.906l3.4-3.4q.4-.34.594.113l2.745,5.151a.741.741,0,0,1-.142.877L9.088,10.479a1.408,1.408,0,0,0-.4.877,4.32,4.32,0,0,0,.877,2.179A18.61,18.61,0,0,0,11.3,15.8l.877.9c.264.264.6.59,1.02.976a17.085,17.085,0,0,0,2.051,1.528,4.59,4.59,0,0,0,2.25.948,1.232,1.232,0,0,0,.906-.368l1.472-1.472a.622.622,0,0,1,.848-.113l4.953,2.915a.414.414,0,0,1,.226.3.361.361,0,0,1-.113.325l-3.4,3.4a1.663,1.663,0,0,1-.9.424,6.846,6.846,0,0,1-3.128-.382,14.152,14.152,0,0,1-3.225-1.542q-1.486-.962-2.759-1.952t-2.038-1.7L9.6,19.28Q9.317,19,8.849,18.5T7.22,16.55a28.423,28.423,0,0,1-2.009-2.844A16.592,16.592,0,0,1,3.739,10.55,6.713,6.713,0,0,1,3.315,7.394Z" transform="translate(-3.267 -2.947)" fill="#fbad49"/>
</svg>
