<svg xmlns="http://www.w3.org/2000/svg" width="31.071" height="31.064" viewBox="0 0 31.071 31.064">
  <path id="Icon_awesome-instagram" data-name="Icon awesome-instagram" d="M15.534,9.805A7.964,7.964,0,1,0,23.5,17.77,7.952,7.952,0,0,0,15.534,9.805Zm0,13.142a5.178,5.178,0,1,1,5.178-5.178,5.187,5.187,0,0,1-5.178,5.178ZM25.681,9.479a1.858,1.858,0,1,1-1.858-1.858A1.853,1.853,0,0,1,25.681,9.479Zm5.275,1.885a9.193,9.193,0,0,0-2.509-6.509,9.254,9.254,0,0,0-6.509-2.509c-2.565-.146-10.252-.146-12.817,0a9.24,9.24,0,0,0-6.509,2.5A9.223,9.223,0,0,0,.1,11.358C-.042,13.923-.042,21.61.1,24.174a9.193,9.193,0,0,0,2.509,6.509,9.265,9.265,0,0,0,6.509,2.509c2.565.146,10.252.146,12.817,0a9.193,9.193,0,0,0,6.509-2.509,9.254,9.254,0,0,0,2.509-6.509c.146-2.565.146-10.245,0-12.81ZM27.643,26.926a5.242,5.242,0,0,1-2.953,2.953c-2.045.811-6.9.624-9.157.624s-7.119.18-9.157-.624a5.242,5.242,0,0,1-2.953-2.953c-.811-2.045-.624-6.9-.624-9.157s-.18-7.119.624-9.157A5.242,5.242,0,0,1,6.377,5.66c2.045-.811,6.9-.624,9.157-.624s7.119-.18,9.157.624a5.242,5.242,0,0,1,2.953,2.953c.811,2.045.624,6.9.624,9.157S28.454,24.888,27.643,26.926Z" transform="translate(0.005 -2.238)" fill="#fbad49"/>
</svg>
