<svg xmlns="http://www.w3.org/2000/svg" width="31.053" height="31.054" viewBox="0 0 31.053 31.054">
  <path id="Icon_awesome-linkedin" data-name="Icon awesome-linkedin" d="M28.835,2.25H2.211A2.228,2.228,0,0,0,0,4.489V31.065A2.228,2.228,0,0,0,2.211,33.3H28.835a2.234,2.234,0,0,0,2.218-2.239V4.489A2.234,2.234,0,0,0,28.835,2.25ZM9.385,28.867h-4.6V14.048h4.61v14.82Zm-2.3-16.844A2.669,2.669,0,1,1,9.753,9.355,2.67,2.67,0,0,1,7.084,12.024ZM26.638,28.867h-4.6V21.658c0-1.719-.035-3.93-2.391-3.93-2.4,0-2.766,1.872-2.766,3.805v7.334h-4.6V14.048h4.415v2.024h.062a4.848,4.848,0,0,1,4.36-2.391c4.658,0,5.524,3.071,5.524,7.063Z" transform="translate(0 -2.25)" fill="#fbad49"/>
</svg>
