<svg xmlns="http://www.w3.org/2000/svg" width="35.49" height="28.824" viewBox="0 0 35.49 28.824">
  <path id="Icon_awesome-twitter" data-name="Icon awesome-twitter" d="M31.842,10.564c.023.315.023.631.023.946,0,9.615-7.319,20.695-20.695,20.695A20.554,20.554,0,0,1,0,28.94a15.047,15.047,0,0,0,1.756.09,14.567,14.567,0,0,0,9.03-3.108,7.286,7.286,0,0,1-6.8-5.044,9.173,9.173,0,0,0,1.374.113,7.693,7.693,0,0,0,1.914-.248A7.275,7.275,0,0,1,1.441,13.6v-.09a7.325,7.325,0,0,0,3.288.923A7.284,7.284,0,0,1,2.477,4.709a20.675,20.675,0,0,0,15,7.611,8.211,8.211,0,0,1-.18-1.666A7.281,7.281,0,0,1,29.882,5.678,14.32,14.32,0,0,0,34.5,3.921,7.254,7.254,0,0,1,31.3,7.93,14.581,14.581,0,0,0,35.49,6.8a15.635,15.635,0,0,1-3.648,3.761Z" transform="translate(0 -3.381)" fill="#fbad49"/>
</svg>
